<svg xmlns="http://www.w3.org/2000/svg" viewBox="0 0 1103 1103">
  <path fill="#006DF0" d="M551 0v89h462v924H551v90h552V0z"/>
  <path fill="#2488FF" d="M89 1013V89h462V0H0v1103h551v-90zM727 743c-37 0-83-17-105-30l-22 87c30 16 75 28 127 28 112 0 170-54 170-127-1-58-32-96-107-121-48-17-63-27-63-45 0-20 17-32 46-32 34 0 68 12 85 22l22-84c-24-12-65-23-111-23-97 0-159 56-159 129-1 46 30 91 111 118 46 15 58 25 58 45s-16 33-52 33z"/>
  <path fill="#2488FF" d="M327 626c11 2 25 2 41 2 73 0 135-17 176-56 32-31 50-76 50-129s-23-98-58-125c-36-29-90-43-165-43s-128 5-165 11v534h121V626zm0-254c9-2 25-5 50-5 61 0 96 30 96 79 0 56-40 89-105 89-18 0-31-1-41-3V372z"/>
</svg>
