<svg xmlns="http://www.w3.org/2000/svg" viewBox="0 0 24351 23155">
  <path fill="#FFF4E0" d="M14966 15574c-250-326-388-728-416-1140v-11c-36-1114 829-2052 1946-2088h71c1081 0 1981 863 2017 1945 33 999-654 1869-1618 2060-1745 3473-4760 5725-8591 6475-616 153-1246 219-1880 219-2060 0-4348-806-5522-2591-854-1298-1128-3016-892-4535 353-2261 1748-4063 3567-5381l420-304 96 510c93 497 234 1018 383 1502l68 222-187 139c-784 577-1515 1430-1953 2296-363 718-566 1499-506 2307 55 740 323 1422 729 2039 652 990 1688 1484 2844 1634 1655 215 3246-123 4720-900 2019-1063 3629-2390 4704-4398zm-2658-5659c-337 598-973 994-1667 1025l-8 1h-67c-1082 0-1982-864-2017-1947-37-1113 829-2052 1946-2088h71c674 0 1307 345 1668 905h292c3771 0 7291 1410 9777 4275 1022 1177 1741 2596 1972 4144 174 1176 62 2475-479 3547-489 971-1342 1779-2267 2333-1171 702-2514 1045-3876 1045-1392 0-2774-382-4029-966l-511-238 458-327c207-148 410-303 609-461 244-193 489-392 718-601l160-144 196 88c834 375 1910 604 2821 604 1714 0 3044-774 3840-2296 547-1046 470-2209 46-3286-613-1558-1679-2786-3072-3707-1880-1242-3986-1906-6242-1906h-339zm-3985 4561h102c1081 0 1981 864 2017 1946 36 1113-830 2052-1946 2088h-71c-1079 0-1976-859-2017-1937-25-295 26-622 160-896-843-1501-1443-3139-1694-4844-287-1955-100-3895 557-5758 814-2308 2643-4290 5065-4895 476-119 966-180 1457-180 1668 0 3200 775 4326 1982 1450 1553 2120 3655 2274 5741l37 492-468-156c-216-72-433-142-651-210-271-84-550-170-827-234l-240-56-14-246c-30-534-183-1129-355-1634-230-672-553-1339-970-1915-724-998-1708-1686-2985-1660-1183 25-2709 608-3457 1563l-4 5C7563 4969 7031 6500 6913 8163c-161 2253 286 4365 1410 6313z"/>
  <path fill="#764ABC" d="M16748 16041c874-91 1538-845 1508-1750-30-904-784-1628-1689-1628h-60c-935 30-1659 814-1629 1749 30 452 211 844 483 1116-1026 2021-2594 3498-4946 4735-1598 844-3257 1146-4916 935-1357-181-2412-784-3076-1780-965-1477-1055-3076-241-4674 573-1146 1478-1991 2051-2413-121-392-302-1055-392-1538-4373 3167-3921 7449-2594 9470 995 1508 3016 2442 5248 2442 603 0 1206-60 1809-211 3860-754 6785-3046 8444-6453zm5307-3740c-2292-2684-5669-4162-9529-4162h-483c-271-543-844-904-1477-904h-61c-934 30-1658 814-1628 1749 30 904 784 1628 1689 1628h60c663-30 1236-452 1478-1025h543c2291 0 4463 663 6423 1960 1508 995 2593 2292 3197 3860 512 1267 482 2503-61 3559-844 1598-2262 2473-4131 2473-1207 0-2352-362-2956-634-331 302-935 785-1357 1086 1297 603 2624 935 3891 935 2895 0 5036-1598 5850-3197 874-1749 814-4765-1448-7328zM6736 16553c30 905 784 1629 1689 1629h60c935-30 1659-815 1628-1749-30-905-784-1629-1688-1629h-61c-60 0-151 0-211 30-1236-2051-1749-4282-1568-6695 121-1809 724-3377 1779-4674 875-1116 2564-1659 3710-1689 3196-60 4553 3920 4644 5519 392 90 1055 301 1508 452-362-4885-3378-7419-6273-7419-2714 0-5217 1961-6212 4856-1388 3860-483 7569 1206 10495-151 211-241 543-211 874z"/>
</svg>
