<svg xmlns="http://www.w3.org/2000/svg" viewBox="0 0 1399 1399">
  <path fill="#FFF4E0" d="M328 0h743c180 0 328 148 328 328v743c0 180-148 328-328 328H328c-180 0-328-148-328-328V328C0 148 148 0 328 0z"/>
  <path fill="#0567C7" d="M328 30h743c164 0 299 134 299 298v743c0 164-135 299-299 299H328c-164 0-298-135-298-299V328C30 164 164 30 328 30zm0 40C186 70 70 186 70 328v743c0 142 116 258 258 258h743c142 0 258-116 258-258V328c0-142-116-258-258-258H328zm372 97c116 0 211 36 211 81s-95 81-211 81c-117 0-211-36-211-81s94-81 211-81zm211 255v129c-15 40-104 71-211 71-108 0-197-31-211-71V422c14 40 103 70 211 70 107 0 196-30 211-70zM489 270c5 43 98 77 211 77s205-34 210-77h1v134c-15 40-104 71-211 71-108 0-197-31-211-71V270zm422 422c0 45-95 81-211 81-117 0-211-36-211-81V569c14 40 103 71 211 71 107 0 196-31 211-71v123zm-15 213c0-9 8-16 17-16s16 7 16 16v280l165 1c9 0 16 7 16 16s-7 16-16 16H914h-1c-9 0-17-8-17-16V905zm-207-14c45 0 86 18 115 47 30 30 48 71 48 116 0 40-14 76-38 105l33 33c7 6 7 16 0 23-6 6-16 6-23 0l-33-34c-28 23-64 36-102 36-45 0-86-18-116-47-29-30-48-71-48-116s19-86 48-116c30-29 71-47 116-47zm92 70c-23-23-56-38-92-38-37 0-69 15-93 38-24 24-38 57-38 93s14 69 38 93c24 23 56 38 93 38 29 0 57-10 79-27l-37-37c-7-6-7-16 0-23 6-6 16-6 23 0l37 38c18-23 29-51 29-82 0-36-15-69-39-93zm-300-29c5 8 3 18-4 23-8 5-18 3-23-4-7-11-15-18-23-22-8-5-17-6-25-6-8 1-16 4-23 9-7 4-13 11-17 18s-6 21-4 34c2 10 7 19 14 24 14 10 27 13 39 15 20 4 37 8 57 31 13 16 22 35 24 56 2 18-1 38-13 59-7 13-17 24-29 33-14 10-31 15-48 16-18 1-36-3-52-12-15-8-29-20-41-36-5-7-3-17 4-23 8-5 18-3 23 4 8 12 18 21 29 27s23 9 35 8c11-1 22-4 32-11 7-5 14-13 19-22 8-15 10-28 9-40-1-14-8-27-17-38-12-15-25-17-39-20s-31-7-50-21c-16-10-24-27-27-44-4-20-1-42 7-56 6-12 15-22 27-29 11-8 24-13 38-14 15-1 30 1 44 9 12 7 24 17 34 32z"/>
</svg>
