<svg xmlns="http://www.w3.org/2000/svg" viewBox="0 0 1450 1640">
  <path fill="#fff" d="M725 0l725 410v820l-725 410L0 1230V410z"/>
  <path fill="#8ED6FB" d="M1320 1202l-571 323v-252l356-195 215 124zm39-35V490l-209 121v435l209 121zm-1232 35l572 323v-252l-356-195-216 124zm-39-35V490l209 121v435L88 1167zm25-720l586-332v244L323 565l-3 2-207-120zm1222 0L749 115v244l375 206 3 2 208-120z"/>
  <path fill="#1C78C0" d="M699 1216l-352-193V640l352 203v373zm50 0l351-193V640L749 843v373zM371 596l353-194 352 194-352 204-353-204z"/>
</svg>
