<svg xmlns="http://www.w3.org/2000/svg" viewBox="0 0 1862 2646">
  <g fill="#E0A16B">
    <path d="M989 324c106-12 71 45 107 149l53 76c27 28 66 25 96 39 3 37-9 53 9 89 107 217-47 278-58 362-4 31-3 62-4 93-1 21-10 76-8 89 31-18 69-99 80-135 9-30 38-147 51-164l2-25c8-90 17-211 4-298l-18-14c-20-7-54-38-68-54-19-21-32-58-44-72-11 50 30 90 36 100-52-1-95-44-115-88-23-52-15-106-51-148-23-11-52-17-72 1zM927 1772l1 123c12 32-1 139 18 162 19-16 55-102 64-129l2 7 25-80c3-26 10-54 14-81 3-27 5-54 8-81-34 7-49 7-73 34-18 20-25 41-59 45z"/>
  </g>
  <g fill="#F9BE7C">
    <path d="M795 322c-3 7-14 16-19 30-11 27-13 76-32 119-19 42-64 88-114 88 9-15 19-20 27-42 8-20 13-37 8-58-17 21-28 81-116 131l-14 8c-12 100-2 202 4 301 5 11 2 12 3 23 13 19 42 134 52 166 15 50 43 104 80 137-1-24-7-52-9-82-2-70 6-116-34-166-84-106-80-183-29-301 20-46 2-54 11-90 213-38 129-225 199-258 24-12 35-2 54-5-20-17-48-10-71-1zM821 1859l23 76 1-7c11 26 47 115 65 130 20-27 5-135 20-160l-2-3-1-123c-56-10-40-68-129-78 4 60 14 107 23 165z"/>
  </g>
  <g fill="#221616">
    <path d="M634 1335l10-2v-41c-9-26-51-52-64-85-14-33-18-90-23-127l-10-9c-38 1-60-30-80-53-11-12-47-70-54-75-19 61-82 135-46 220 8 19 25 51 41 58 2-29-5-67 11-93 5 39 4 79 29 113 22 29 52 48 92 47-24-16-26-61-20-88 18 45 1 39 42 81 17 18 60 36 72 54zM380 603c-17 81-9 95 8 172 15-10 22-49 50-63 43-23 55 21 52 53 9 18 13 52 19 74 9 26 18 43 28 68l2-8c-6-99-16-201-4-301l14-8c7-20 24-35 24-57-42 33-100 86-162 80 13-15 26-16 35-40-13 4-25 20-66 30z"/>
  </g>
  <path fill="#201414" d="M1305 1072c-15 19-15 98-26 130-14 39-59 65-67 91l1 40 10 1c13-18 54-34 72-53 42-43 23-36 42-81 6 27 3 72-21 88 39 2 70-17 91-45 27-37 25-73 31-115 16 26 9 64 10 93 29-13 59-84 50-138-10-57-40-91-54-140-21 10-74 137-139 129zm-2-487l18 14c13 87 4 208-4 298l1 10c31-42 31-107 49-141l5-46c46-54 85 48 96 54 15-57 29-110 8-169-4-2-65-32-66-32 4 20 23 34 40 41-30 1-68-15-95-28-36-17-66-50-71-53 0 17 7 34 20 45l-1 7z"/>
  <g fill="#E8A868">
    <path d="M644 1333v57c7 20 50 74 65 91 11 12 27 29 36 42 11 14 26 27 36 42 12 12 16 108 17 129 89 10 73 68 129 78l2-332c-121 2-136-12-227-99l-44-41c-11-11-2-7-14-8v41zM388 775c-2 37-14 44-3 90 6 26 25 58 28 78 7 5 43 63 54 75 20 23 42 54 80 53l10-1-8-68c-38-5-38-8-59-38-25-37-55-102-47-146 2-10 7-26 14-35 9-11 20-11 25-13 10-3-1 3 8-5 3-32-9-76-52-53-28 14-35 53-50 63zM844 1935c3 25 28 84 38 110 12 32 35 73 44 101l5-2c-12-24 2-203-1-246-15 25 0 133-20 160-18-15-54-104-65-130l-1 7z"/>
  </g>
  <g fill="#D18F59">
    <path d="M929 1440l-2 332c34-4 41-25 59-45 24-27 39-27 73-34 2-24 6-115 15-130 21-16 129-147 139-173v-57l-1-40c-10-2-6-2-16 9l-41 39c-93 85-101 102-226 99zM1367 766c11 9 8 3 19 7 7 2 10 6 14 11 39 52-3 132-33 180-18 29-25 33-59 38-4 10-3 24-5 36 0 6-1 13-2 19-2 19-5 8 4 15 65 8 118-119 139-129 3-19 21-50 27-75 4-16 6-32 5-48-1-19-7-30-8-46-11-6-50-108-96-54l-5 46z"/>
  </g>
  <path fill="#BAC2CC" d="M630 2313l3 92v239h296l1-391c-92-1-235 75-300 60zm-25-463c4-4 113-201 164-236 10 52 24 211 52 245-9-58-19-105-23-165-1-21-5-117-17-129-1 10-87 104-100 120-10 12-22 34-33 42-20-42-57-206-71-226l28 349zm29-515l-13 11c1 14 14 34 23 44v-57l-10 2z"/>
  <path fill="#A6A5AD" d="M929 2644h294v-239l4-93c-26 15-120-17-151-26-57-17-83-30-146-33l-1 391zm145-1081c-9 15-13 106-15 130-3 27-5 54-8 81-4 27-11 55-14 81 28-39 40-188 50-241 16 9 74 88 88 110l77 127 27-349c-14 18-49 185-71 226-6-6-24-33-33-43-12-15-100-115-101-122zm139-173l24-41-14-15-10-1v57z"/>
  <g fill="#352122" stroke-width=".764">
    <path stroke="#201414" d="M1061 323c36 42 28 96 51 148 20 44 63 87 115 88-6-10-47-50-36-100 12 14 25 51 44 72 14 16 48 47 68 54l1-7c-13-11-20-28-20-45 5 3 35 36 71 53 27 13 65 29 95 28-17-7-36-21-40-41 1 0 62 30 66 32 12-6 30 2 46-12 10-9 17-21 22-34-28 9-42 24-66-11-15-24-16-63-18-90-6-70-16-117-36-183-9 9-4-6-5 11l2 39c-24-28-43-56-95-67 3 13 46 40 41 86-10-7-1 0-8-7-32-28-57-52-111-56 6 14 45 39 50 88-26-9-55-57-107-54 8 14 39 37 32 89-7-5-25-29-34-38-7-7-29-25-38-29 5 29 14 63 0 91-10-22-14-42-31-66-13-18-35-39-59-39z"/>
    <path stroke="#000" d="M933 51c0 1-1 2-2 3-1 8-5-5-4 29 1 12 1 24 1 35v148c0 16-4 58 4 53l-5 9 2 3c17-12 37-22 59-25 4-13 35-13 47-14-29-10-50-8-79-1 16-39 87-33 119-36-43-31-102-6-118-5 63-51 78-54 158-36-21-43-82-34-119-31 12-15 41-26 62-29 36-5 53 5 85 10-8-17-35-27-55-33-43-12-52 1-87 2 20-30 66-25 97-28-7-11-18-12-39-16-14-2-28 0-41 2 4-11 37-19 51-22 25-5 49 0 74 0-25-26-90-29-125-19 13-13 16-12 34-16l-14-2-15-1c15-18 47-19 69-27-63-11-154 15-159 47z"/>
  </g>
  <g fill="#E1E5EA">
    <path d="M605 1850l25 463c65 15 208-61 300-60l-4-107c-9-28-32-69-44-101-10-26-35-85-38-110l-23-76c-28-34-42-193-52-245-51 35-160 232-164 236zM565 1456c10 3 8 7 9 20 1 9 2 17 3 25 14 20 51 184 71 226 11-8 23-30 33-42 13-16 99-110 100-120-10-15-25-28-36-42-9-13-25-30-36-42-15-17-58-71-65-91-9-10-22-30-23-44-21 22-37 84-56 110z"/>
  </g>
  <g fill="#CAC4C8">
    <path d="M1037 1855l-25 80c-4 44-60 163-81 209l-5 2 4 107c63 3 89 16 146 33 31 9 125 41 151 26l25-461-77-127c-14-22-72-101-88-110-10 53-22 202-50 241zM1213 1390c-10 26-118 157-139 173 1 7 89 107 101 122 9 10 27 37 33 43 22-41 57-208 71-226 2-14 2-37 9-46-11-24-35-91-51-107l-24 41z"/>
  </g>
  <path fill="#E5AE75" d="M929 331c-5 64-1 365-1 454 0 65-4 425 3 457l75 2-22 18c-3 20-1 38 8 55 36 15 83-9 114-28 19-11 69-52 78-68-2-13 7-68 8-89 1-31 0-62 4-93 11-84 165-145 58-362-18-36-6-52-9-89-30-14-69-11-96-39l-53-76c-36-104-1-161-107-149l-12-1 25-18-14 1c-22 3-42 13-59 25z"/>
  <path fill="#FDCC8B" d="M866 323c-19 3-30-7-54 5-70 33 14 220-199 258-9 36 9 44-11 90-51 118-55 195 29 301 40 50 32 96 34 166 2 30 8 58 9 82 33 41 127 111 188 93 14-16 14-35 11-56l-22-19 80-1c-7-32-3-392-3-457 0-89-4-390 1-454l-2-3c-15-4-37-17-59-23h-14l25 19-13-1z"/>
  <path fill="#4B3B36" stroke="#4B3B36" stroke-width=".764" d="M434 276c14 1-4 11 1 49 28-30 49-59 94-66-4 9-42 40-40 84 16-7 33-28 53-39 22-13 42-22 69-22-26 17-48 52-53 87 24-6 49-51 112-55-28 6-40 64-36 90 25-16 38-51 70-64-4 30-12 56 0 88 10-10 20-51 34-68 7-7 51-48 57-38 23-9 51-16 71 1l13 1-25-19h14c-10-12-16-9-42-14 30-15 52-1 77 1-19-39-86-35-122-37 14-10 40-15 60-15 26 0 40 10 58 11-8-6-6-8-13-14-40-35-96-39-145-23 29-47 97-31 119-31-6-14-45-27-62-30-40-5-51 5-85 11 38-50 106-36 144-30-24-39-72-22-105-29 28-18 54-16 86-15-25-28-82-20-115-23 19-28 84-22 114-18-7-13-18-12-34-15l18-2c-8-16-119 3-139 9-40 11-75 27-110 51-54 37-124 114-138 184z"/>
  <path fill="#453331" stroke="#453331" stroke-width=".764" d="M988 306l14-1-25 18 12 1c20-18 49-12 72-1 24 0 46 21 59 39 17 24 21 44 31 66 14-28 5-62 0-91 9 4 31 22 38 29 9 9 27 33 34 38 7-52-24-75-32-89 52-3 81 45 107 54-5-49-44-74-50-88 54 4 79 28 111 56 7 7-2 0 8 7 5-46-38-73-41-86 52 11 71 39 95 67l-2-39c1-17-4-2 5-11-24-70-79-144-138-181-37-24-63-39-106-52-29-8-119-26-142-10l14 2c-18 4-21 3-34 16 35-10 100-7 125 19-25 0-49-5-74 0-14 3-47 11-51 22 13-2 27-4 41-2 21 4 32 5 39 16-31 3-77-2-97 28 35-1 44-14 87-2 20 6 47 16 55 33-32-5-49-15-85-10-21 3-50 14-62 29 37-3 98-12 119 31-80-18-95-15-158 36 16-1 75-26 118 5-32 3-103-3-119 36 29-7 50-9 79 1-12 1-43 1-47 14z"/>
  <path fill="#161620" d="M1414 2171l-88-105c7-20 67-94 83-116 14-18 29-38 41-57 20-31 16-16 2-74-15-60-83-279-87-315 26 7 60 24 87 35 28 11 57 22 86 33 36 14 134 52 157 79-25 13-49 35-72 64-75 91-140 242-159 332-1 2-1 4-2 5h1c-1 2-1 4-1 6-43 233 21 395 75 585h73l-387 1 191-473z"/>
  <path fill="#171B24" d="M162 1651c36 10 81 74 102 107 14 21 29 42 41 65l2 3 1 3 2 4 2 3 1 3 2 4 2 3 1 3 2 4 1 3 2 3 2 4 1 3 2 4 2 3 1 4 2 3 1 4 2 3 1 3 2 4 2 4 1 3 2 4 1 3 2 4 1 3 2 4 1 3 2 4 1 4 1 3 2 4 1 3 2 4 1 4 2 3 1 4 1 3 2 4 1 4 1 3 2 4 1 4 1 3c1 1 1 3 1 4l2 4 1 3 1 4c0 1 1 2 1 3l1 4 1 4 2 3c0 2 0 3 1 4l1 4c0 1 1 2 1 3l1 4c0 1 1 2 1 4 0 1 1 2 1 3s1 3 1 4 1 2 1 3l1 4c0 1 1 2 1 4 0 1 0 2 1 3 7 29 14 115 15 184 2 102-3 236-48 411h272l-190-473c15-17 82-93 87-110-42-60-82-104-125-170-20-29-10-38 0-72 30-100 53-213 86-311v-2c-14 1-146 55-170 65-37 15-136 52-159 80z"/>
  <path fill="#392626" stroke="#392626" stroke-width=".764" d="M434 276c-33 49-33 227-52 265-18 38-37 31-68 19 7 37 34 42 66 43 41-10 53-26 66-30-9 24-22 25-35 40 62 6 120-47 162-80 0 22-17 37-24 57 88-50 99-110 116-131 5 21 0 38-8 58-8 22-18 27-27 42 50 0 95-46 114-88 19-43 21-92 32-119 5-14 16-23 19-30-6-10-50 31-57 38-14 17-24 58-34 68-12-32-4-58 0-88-32 13-45 48-70 64-4-26 8-84 36-90-63 4-88 49-112 55 5-35 27-70 53-87-27 0-47 9-69 22-20 11-37 32-53 39-2-44 36-75 40-84-45 7-66 36-94 66-5-38 13-48-1-49z"/>
  <path fill="#B8845F" d="M1184 1221c-9 16-59 57-78 68-31 19-78 43-114 28-9-17-11-35-8-55l22-18-75-2c-6 20-4 169-2 198 125 3 133-14 226-99l41-39c10-11 6-11 16-9 8-26 53-52 67-91 11-32 11-111 26-130-9-7-6 4-4-15 1-6 2-13 2-19 2-12 1-26 5-36l7-80c-13 17-42 134-51 164-11 36-49 117-80 135z"/>
  <path fill="#CD996E" d="M549 1002l8 68-10 1 10 9c5 37 9 94 23 127 13 33 55 59 64 85 12 1 3-3 14 8l44 41c91 87 106 101 227 99-2-29-4-178 2-198l-80 1 22 19c3 21 3 40-11 56-61 18-155-52-188-93-37-33-65-87-80-137-10-32-39-147-52-166l7 80z"/>
  <path fill="#3A2728" stroke="#3A2728" stroke-width=".764" d="M821 32l-18 2c16 3 27 2 34 15-30-4-95-10-114 18 33 3 90-5 115 23-32-1-58-3-86 15 33 7 81-10 105 29-38-6-106-20-144 30 34-6 45-16 85-11 17 3 56 16 62 30-22 0-90-16-119 31 49-16 105-12 145 23 7 6 5 8 13 14-18-1-32-11-58-11-20 0-46 5-60 15 36 2 103-2 122 37-25-2-47-16-77-1 26 5 32 2 42 14 22 6 44 19 59 23l5-9c-8 5-4-37-4-53V118c0-11 0-23-1-35-1-34 3-21 4-29 1-1 2-2 2-3-16-5-61-67-168-47 19 7 55 11 68 27l-12 1z"/>
  <path fill="#C37A49" d="M1317 897l-2 25-7 80c34-5 41-9 59-38 30-48 72-128 33-180-4-5-7-9-14-11-11-4-8 2-19-7-18 34-18 99-49 141l-1-10z"/>
  <path fill="#D98E55" d="M549 1002l-7-80c-1-11 2-12-3-23l-2 8c-10-25-19-42-28-68-6-22-10-56-19-74-9 8 2 2-8 5-5 2-16 2-25 13-7 9-12 25-14 35-8 44 22 109 47 146 21 30 21 33 59 38z"/>
  <path fill="#D1905A" d="M931 2144c21-46 77-165 81-209l-2-7c-9 27-45 113-64 129-19-23-6-130-18-162l2 3c3 43-11 222 1 246z"/>
  <path fill="#212532" stroke="#212532" stroke-width=".764" d="M409 2233c-1-69-8-155-15-184-20-77-53-157-89-226-12-23-27-44-41-65-21-33-66-97-102-107-264 135-122 834-136 993h335c45-175 50-309 48-411z"/>
  <path fill="#282E3D" stroke="#282E3D" stroke-width=".764" d="M491 1506v2c-33 98-56 211-86 311-10 34-20 43 0 72 43 66 83 110 125 170-5 17-72 93-87 110l190 473v-239l-3-92-25-463-28-349c-1-8-2-16-3-25-1-13 1-17-9-20-8 6-28 15-39 21-16 10-30 12-35 29z"/>
  <path fill="#252837" stroke="#252837" stroke-width=".764" d="M1279 1502l-27 349-25 461-4 93v239l191-473-88-105c7-20 67-94 83-116 14-18 29-38 41-57 20-31 16-16 2-74-15-60-83-279-87-315-5-14-20-18-35-27-13-8-27-15-42-21-7 9-7 32-9 46z"/>
  <path fill="#1E202C" stroke="#1E202C" stroke-width=".764" d="M1537 2643l296 1c-7-190 131-841-138-993-104 55-213 293-233 407-43 233 21 395 75 585z"/>
</svg>
