<svg xmlns="http://www.w3.org/2000/svg" fill-rule="evenodd" viewBox="0 0 5987 5987">
  <path fill="#FFF4E0" d="M5987 4961c0 564-462 1026-1026 1026H1027C462 5987 0 5525 0 4961V1027C0 462 462 0 1027 0h3934c564 0 1026 462 1026 1027v3934z"/>
  <path fill="#563D7C" d="M5944 4961c0 541-442 983-983 983H1027c-541 0-984-442-984-983V1027c0-541 443-984 984-984h3934c541 0 983 443 983 984v3934zM1647 1326h1673c308 0 556 70 742 212 186 141 280 354 280 641 0 173-43 322-128 445-85 124-206 220-364 288v9c212 46 373 146 482 301 109 156 164 351 164 586 0 135-24 262-72 378-49 118-124 219-227 304s-234 152-395 203c-161 50-352 75-574 75H1647V1326zm602 1441h984c144 0 265-40 361-123 97-83 145-201 145-355 0-174-43-296-130-367-87-70-212-106-376-106h-984v951zm0 1509h1066c183 0 326-47 426-143 101-94 152-229 152-403 0-170-50-301-152-393-102-93-243-137-426-137H2249v1076z"/>
</svg>
