<svg xmlns="http://www.w3.org/2000/svg" viewBox="0 0 689 783">
  <path fill="#0170BA" d="M0 0h689c-13 143-25 286-38 429-8 92-16 183-25 275-49 13-97 27-146 41-45 13-91 25-136 38h-1c-43-13-86-24-129-37-50-14-101-29-151-42-7-69-13-137-19-206-11-127-23-253-33-380C7 80 4 42 0 4V0zm346 56c-1 28 0 55-1 83H109c1 27 5 53 8 80 74 2 147 0 220 2-64 29-129 56-193 84-6 2-12 4-17 8 1 29 6 58 8 88 39-1 78-1 117-1h94c-2 48 0 96-1 144-21-3-42-8-63-11-16-4-33-6-50-11l-6-69c-4-2-9-1-14-2-24 1-48 0-71 1 2 44 6 89 13 133 23 6 46 12 70 18 35 10 72 18 107 28 5 1 9 2 13 2 3 29 1 58 1 88 9-2 17-4 25-6 67-18 135-37 203-56 3-26 5-53 7-80 7-81 14-163 22-244 8-93 16-186 25-279H346z"/>
  <path fill="#29A9DF" d="M346 56h281c-9 93-17 186-25 279-8 81-15 163-22 244-2 27-4 54-7 80-68 19-136 38-203 56-8 2-16 4-25 6 0-30 2-59-1-88 1 0 2-1 3-1 63-16 125-33 188-49 8-90 17-179 22-268H397c-8 0-15 0-23-1 29-14 59-26 88-39s57-25 86-38c5-3 11-5 16-8 2-7 2-15 2-22 2-22 5-45 6-68H345c1-28 0-55 1-83z"/>
  <path fill="#29A9DF" d="M346 400c36-1 73 0 110 0-2 37-6 74-8 112-22 7-45 13-67 20-12 4-25 7-36 12 1-48-1-96 1-144z"/>
  <path fill="#CFCFCF" d="M109 139h236c1 87 0 174 1 261h-94c-39 0-78 0-117 1-2-30-7-59-8-88 5-4 11-6 17-8 64-28 129-55 193-84-73-2-146 0-220-2-3-27-7-53-8-80zM141 452c23-1 47 0 71-1 5 1 10 0 14 2l6 69c17 5 34 7 50 11 21 3 42 8 63 11 2 29-2 59 2 88-1 0-2 1-3 1-4 0-8-1-13-2-35-10-72-18-107-28-24-6-47-12-70-18-7-44-11-89-13-133z"/>
  <path fill="#fff" d="M345 139h227c-1 23-4 46-6 68 0 7 0 15-2 22-5 3-11 5-16 8-29 13-57 25-86 38s-59 25-88 39c8 1 15 1 23 1h160c-5 89-14 178-22 268-63 16-125 33-188 49-4-29 0-59-2-88 11-5 24-8 36-12 22-7 45-13 67-20 2-38 6-75 8-112-37 0-74-1-110 0-1-87 0-174-1-261z"/>
</svg>
