<svg xmlns="http://www.w3.org/2000/svg" viewBox="0 0 2963 2963">
  <path fill="#FFF4E0" d="M2899 1330c86 85 86 224 0 309L1639 2899c-85 86-224 86-309 0L64 1633c-85-85-85-224 0-309l891-890 366 366-8 20c-30 71-14 153 41 208 18 18 39 32 62 41l20 8v839l-20 8c-23 10-44 24-62 42-75 74-75 195 0 269 74 75 195 75 269 0 74-74 74-195 0-269-15-15-32-27-50-36l-18-9v-885l369 369-8 19c-29 71-13 153 41 208 75 74 195 74 270 0 74-75 74-195 0-270-52-51-128-69-197-45l-19 7-349-350 6-19c24-69 7-145-45-197-51-51-127-68-196-45l-18 6-370-370 285-285c86-85 224-85 309 0l1266 1266z"/>
  <path fill="#F05133" d="M2877 1352L1611 86c-73-72-191-72-264 0l-263 263 333 334c78-26 167-9 228 53 63 62 80 152 53 230l322 321c77-27 167-9 229 53 87 87 87 227 0 314s-227 87-314 0c-65-65-82-161-48-242l-300-299v788c21 11 41 25 58 42 87 87 87 228 0 315-86 87-227 87-314 0s-87-228 0-315c22-21 47-37 73-48v-796c-26-11-51-27-73-49-66-65-81-162-48-243L955 479 86 1347c-72 73-72 191 0 264l1267 1266c73 73 191 73 264 0l1260-1260c73-73 73-192 0-265z"/>
</svg>
