<svg xmlns="http://www.w3.org/2000/svg" viewBox="0 0 1038 1179">
  <path fill="#D4B830" d="M96 1060L0 0h1038l-96 1060-424 119-422-119zm768-57l81-909H520l3 1002 341-93zM480 227H377l-1 544-201-55 1 125 304 82V227z"/>
  <path fill="none" d="M446 913c-13-4-79-22-146-40l-122-33v-61c0-60 0-61 6-59 3 1 48 13 99 27l92 26 1-272 1-271h101v345c0 274-1 345-4 345-2 0-15-4-28-7z"/>
  <path fill="#EBEBEB" fill-opacity=".906" d="M176 841l-1-125s128 36 201 55l1-543h103v695l-304-82z"/>
  <path fill="#FDD83C" d="M520 94h425l-81 908-344 94V94zm322 756l28-340-206 23V352l220-1 9-124-332 2 4 451 201-34-3 100-202 54 2 123 279-73z"/>
</svg>
