<svg xmlns="http://www.w3.org/2000/svg" fill-rule="evenodd" clip-rule="evenodd" image-rendering="optimizeQuality" shape-rendering="geometricPrecision" text-rendering="geometricPrecision" viewBox="0 0 4407 3930">
  <path fill="#FFF4E0" d="M2207 3465c-138 128-293 248-459 337-127 69-279 128-427 128-75 0-148-16-213-53-156-90-221-274-246-442-34-232-3-491 47-720-224-70-464-172-648-317C127 2293 0 2144 0 1965s127-327 259-431c184-145 423-247 646-318-50-229-81-487-48-718 25-168 89-352 244-441 66-38 140-54 215-54 147 0 299 58 427 127 165 88 320 207 459 334 138-127 293-248 458-336C2788 59 2939 0 3086 0c75 0 148 16 213 54 156 89 221 273 246 441 34 232 3 491-47 720 224 70 464 173 648 317 134 105 261 254 261 433s-127 327-259 432c-183 144-422 247-644 317 50 229 81 487 47 718-24 168-89 352-244 441-65 38-139 54-214 54-147 0-299-59-427-127-166-89-320-208-459-335zM2019 644c-116-106-247-207-384-283-92-50-212-102-319-102-29 0-61 4-87 19-67 40-98 146-112 216-12 64-17 129-17 194-1 78 4 156 14 234 9 75 22 151 39 225 173-42 349-71 526-90 104-144 218-283 340-413zm900 698c33 51 64 103 94 155 30 51 59 103 87 156 32-85 61-171 87-258-88-21-178-38-268-53zm-331 1287c73-106 141-215 205-326 63-110 122-224 176-339-54-115-113-228-177-338-64-111-133-219-206-324-127-10-255-15-383-15s-256 5-384 16c-73 106-141 214-205 326-63 110-122 223-176 339 54 115 113 228 177 338s133 218 206 323c127 10 255 16 382 16 129 0 257-6 385-16zm49-664c0 240-195 434-434 434-240 0-435-194-435-434s195-434 435-434c239 0 434 194 434 434zm553 569c-27-88-57-175-90-261-27 53-56 106-86 158-30 53-62 105-94 157 90-15 180-33 270-54zm-985 572c64-67 124-137 182-209-61 2-123 3-184 3s-121-1-182-4c59 73 120 143 184 210zm-899-829c-32 85-61 171-87 258 88 21 178 38 268 53-32-51-64-103-94-154-30-52-59-104-87-157zm895-1453c-63 67-124 137-182 209 62-2 123-3 184-3s121 1 182 4c-59-73-120-143-184-210zm-715 518c-90 15-180 33-270 53 27 88 57 175 90 261 28-52 56-105 86-157 30-53 62-105 94-157zM971 2467c51-170 113-337 185-500-72-164-136-332-187-503-73 24-145 49-215 79-127 54-263 127-368 218-54 46-131 127-131 204s77 157 131 204c105 91 241 164 368 218 71 30 144 56 217 80zm1052 820c-123-130-237-270-343-414-177-19-353-48-525-89-16 76-29 152-39 229-9 77-14 156-13 234 1 64 6 130 19 193 13 70 45 177 112 215 26 15 57 19 86 20 107 0 227-53 319-103 137-77 267-179 384-285zm365-2c116 106 246 207 384 283 92 50 212 103 319 103 29 0 61-4 87-19 66-39 98-146 111-216 12-63 17-129 18-194 1-78-4-156-14-234-9-76-23-151-39-226-173 42-349 71-526 90-104 145-218 283-340 413zm1047-1822c-51 170-113 337-185 500 72 164 136 332 187 503 73-24 145-49 215-79 127-54 264-127 369-217 54-47 131-128 131-205s-76-158-130-204c-105-91-242-164-369-218-71-30-144-56-218-80zm-708-406c176 20 352 48 525 89 16-76 29-152 39-229 9-77 14-156 13-234-1-64-6-130-19-193-14-70-45-177-112-215-26-14-56-19-87-19-106 0-226 52-318 103-138 76-267 178-384 284 123 130 237 270 343 414z"/>
  <path fill="#61DAFB" d="M3663 2414c-76 32-159 62-245 89-51-174-117-354-200-540 82-184 148-364 197-537 88 28 171 58 249 90 314 134 517 310 517 449-1 139-204 316-518 449zm-341 591c42 338-10 602-129 672-27 16-61 23-102 23-184 0-456-147-745-413 124-131 248-279 366-443 201-21 390-54 564-97 20 89 36 175 46 258zm-2102 675c-121-69-173-332-133-671 10-83 26-171 46-260 173 42 363 75 563 96 119 164 243 313 368 443-289 269-560 416-744 416-40-1-74-9-100-24zM743 2414c-314-134-517-310-517-449s203-316 517-449c76-32 159-62 245-89 51 174 117 355 200 540-82 184-148 364-197 537-88-28-171-58-248-90zm802-1110c-44 68-87 138-128 210-41 71-79 142-115 213-48-119-89-238-122-353 116-28 238-52 365-70zm656-522c82 85 165 180 246 283-80-3-161-6-244-6s-165 2-246 6c80-103 162-198 244-283zm-655 1844c-126-18-248-41-364-70 33-114 74-232 120-350 36 71 74 142 116 213s84 140 128 207zm659 522c-82-85-165-180-246-283 80 3 161 6 244 6s165-2 246-6c-80 103-162 198-244 283zm899-945c48 118 89 237 122 352-116 29-238 53-365 71 44-68 87-138 128-210 41-71 79-143 115-213zm-286 115c-69 119-140 233-214 338-132 12-266 18-401 18-133 0-267-6-398-17-74-105-146-218-215-337-67-116-128-234-184-352 55-119 117-238 183-354 69-120 140-233 214-339 132-11 266-17 400-17s268 6 399 17c74 105 146 218 215 336 67 116 128 234 184 353-56 119-117 238-183 354zm406-944c-33 114-74 232-120 350-36-71-74-142-116-213-41-71-84-140-128-207 126 18 248 41 364 70zM1316 229c184 0 456 147 745 413-124 131-248 279-366 443-201 21-390 54-564 97-20-88-36-174-46-257-42-338 10-602 129-672 27-16 61-24 102-24zm0-197c-74 0-142 17-200 50-249 144-305 592-177 1154-551 170-910 442-910 729 0 288 361 561 914 730-128 564-71 1013 179 1156 58 34 125 50 199 50 244 0 563-174 886-475 323 299 642 471 886 471 74 0 141-16 200-49 249-144 305-591 176-1153 550-170 909-443 909-730 0-288-361-561-914-730 128-564 71-1013-179-1156-58-34-125-50-199-50-243 0-562 173-884 474-323-299-642-471-886-471zm1770 195c41 0 74 8 101 23 121 69 173 332 132 671-9 83-25 171-45 260-173-42-363-75-563-96-119-164-243-313-368-443 289-269 559-415 743-415zM1315 32zm1293 1933c0-224-182-405-405-405-224 0-406 181-406 405s182 405 406 405c223 0 405-181 405-405zM3085 29z"/>
</svg>
