<svg xmlns="http://www.w3.org/2000/svg" viewBox="0 0 3295 2484">
  <path fill="#FFF4E0" d="M1341 1996c-5 9-10 19-14 29-4 7-8 15-11 22-23 44-49 97-94 123-20 12-42 18-66 18-37 0-68-6-96-33-51-48-82-138-96-206-8-41-12-85-8-127 4-54 11-108 24-160-21 11-42 23-62 35-15 9-29 18-44 26 29 66 37 150 34 220-5 103-35 206-93 292-124 185-353 293-574 232-25-7-48-25-66-44-22-24-40-53-51-84-32-87-19-182 18-265 71-156 319-306 475-385-15-11-29-22-44-32-30-22-61-43-91-64-70-48-139-96-205-149-121-98-243-224-273-382-6-30-4-62 0-92 7-43 20-86 38-126 52-122 143-231 240-321 211-199 500-348 772-444 189-67 405-98 604-67 151 24 319 90 395 232 13 23 22 48 29 73 4 16 7 33 9 49 16 121-19 243-78 348-64 113-159 212-266 285-52 35-107 64-166 87-120 46-249 77-379 83-47 3-95 2-142-3-33-4-68-9-100-20-50-16-97-42-137-76-25-23-53-54-65-86-3-7-6-13-8-21-6-23-4-49 19-62 6-3 12-5 19-6h4c20 2 37 23 51 37 21 23 59 43 88 53 68 25 144 29 215 21 213-24 428-114 579-270 54-56 102-124 128-198 18-54 25-116 0-169-17-39-59-65-96-82-62-27-135-37-202-39-95-3-192 10-285 32-120 29-236 73-346 128-122 60-242 129-351 212-69 52-135 111-187 180-32 42-59 89-75 139-9 31-14 61-16 93-2 33 3 67 14 99 22 61 65 114 110 159 55 53 116 99 176 145 65 51 132 101 189 161l87-48c70-39 141-77 212-116 27-38 60-72 95-102 55-47 136-99 210-99 76 0 119 47 130 120 3 21 4 45 2 69 16-3 33 0 49 6 24 8 45 24 52 49 2 7 3 15 3 23 0 3-1 5-1 7v4l-3 9c-1 6-2 11-4 16-4 16-8 31-12 47-13 46-25 91-36 137-9 36-18 73-25 111v1c16-31 31-63 46-96 35-77 69-154 104-231 23-54 47-107 71-161 8-19 16-39 25-58 4-10 8-20 12-31 6-18 11-36 16-54 3-15 6-29 12-43 8-23 38-33 60-38 30-6 61-9 92-8 26 0 55 4 76 20 11 9 19 21 21 34l1 6-1 7c-1 5-2 9-4 13-2 7-4 14-7 21-6 19-12 37-17 56-4 15-8 29-10 44-3 24-3 47-1 71 2 17 5 34 7 50 2 15 8 31 14 44 2 6 5 12 8 17 22-37 44-75 65-114 25-44 48-88 70-133 9-17 17-35 24-52 4-11 9-22 11-33 7-34 17-69 29-101 8-23 38-32 60-38 30-6 62-9 92-8 26 0 56 4 76 20 11 9 19 21 22 34l1 6-2 7c0 5-2 9-3 13-3 7-5 14-8 21-6 19-12 37-17 56-4 15-8 29-9 44-4 24-4 47-1 72 1 16 4 33 6 49 3 20 13 43 22 61 9 21 20 41 30 61 89-40 184-59 282-60 128-1 258 35 356 122 39 35 71 78 92 125 20 45 31 94 28 143-3 65-30 122-79 165-16 15-35 29-55 39-12 7-27 14-40 16h-2c-14 2-29 4-42-6-9-6-13-15-15-25-1-5-1-10 0-15 4-18 22-28 36-37 39-25 71-61 78-108 2-20-1-42-7-60-8-28-23-55-41-77-63-75-164-106-257-117s-189-6-278 25c11 33 19 68 20 103 4 95-59 168-131 222-35 25-75 46-116 59-30 13-69 26-101 19-29-6-54-20-69-46-27-46-14-108 3-155 14-40 37-78 62-112 30-40 65-77 103-110-19-38-38-75-50-116-6-20-12-41-17-61-6 11-12 23-18 34-40 72-82 143-128 210v1c-3 4-6 8-9 13 18 44 32 90 34 138 2 54-10 106-40 152-18 28-42 52-69 72-33 24-70 43-108 57-40 18-84 26-127 29-31 2-71 1-97-18-35-26-38-62-22-101 4-10 11-20 17-29 10-12 19-25 29-37 26-32 53-64 79-95 10-12 21-24 31-36 12-15 24-29 36-44l-1-1 19-25c6-7 11-14 16-21-4-10-9-19-14-29-18-36-36-73-48-113-5-17-10-34-14-50-2 5-5 10-7 16-28 68-58 135-90 202-10 23-22 45-33 68-39 77-79 153-122 228v2l-5 9-6 9-1 2-4 5c-29 44-81 105-138 105-24 0-47-8-65-24-35-29-47-80-50-124zm-618-195c-16 10-32 19-48 29-56 35-111 73-162 114-19 15-37 31-54 47-45 42-83 100-97 161-6 23-11 76 14 91 28 15 77 4 105-6 54-19 104-55 143-97 89-97 123-214 99-339zm660-391c-5 1-13 4-16 6-23 10-45 29-62 48-13 15-25 33-36 51-15 24-29 49-41 75-11 22-20 45-28 68-21 63-32 135-28 201 1 17 4 35 7 51 2 5 5 17 9 25 6-7 13-19 16-24 19-32 33-67 47-101 17-42 32-84 49-126 8-18 15-37 22-56 10-28 19-56 28-84 10-32 20-64 27-97 2-7 6-25 6-37zm964 413c50-27 78-70 79-134v-1c-23 25-44 53-57 82-7 15-13 30-19 45-1 3-2 6-3 8z"/>
  <path fill="#CD6799" d="M1568 2015v-1c2-3 5-6 7-10v-1l1-2c44-76 85-154 125-233 11-22 22-45 33-67 31-66 60-133 89-201 13-31 25-62 38-94l12-32 6 34c1 12 4 24 6 35 7 32 15 64 25 95 11 37 29 73 46 108l21 42 2 5-3 5c-9 11-17 24-26 35v1l-5 6c-16 22-33 43-50 64-10 12-21 24-31 36-26 31-53 62-78 94-10 12-19 24-28 36-5 6-11 15-14 22-10 24-10 43 11 59 18 13 53 12 73 11 39-2 81-11 116-26l1-1c35-12 70-30 100-52 24-18 44-38 60-63 26-40 36-84 35-131-2-48-18-96-37-140l-2-5 3-4c6-8 11-17 17-25 46-66 87-136 126-207 17-32 35-65 51-98l13-27 5 29c1 12 4 24 6 35 7 32 16 64 25 95 13 44 37 88 57 129l3 7-6 4c-42 34-80 74-112 117-23 30-45 67-58 102-19 55-36 140 40 156 24 5 59-8 81-17v-1h1c38-12 75-31 107-55 62-46 120-109 117-192-2-40-13-79-27-115l-3-9 8-3c101-42 212-50 319-37 103 12 211 47 280 129 21 27 38 57 48 90 7 23 11 50 7 75-8 57-45 102-93 133-3 1-20 12-21 15 0 0 1 0 1 1 0 0 0 3 1 3 2 1 14 0 16-1 9-1 23-8 30-12 18-9 34-21 49-34 41-37 65-85 67-141 2-43-7-87-25-126-19-44-49-82-84-114-90-81-212-113-332-113-101 1-199 23-289 67l-9 4-4-8c-14-28-29-55-42-84-10-21-21-47-24-71-3-17-6-34-7-51-3-27-3-52 1-79 2-17 6-33 10-49 5-20 12-39 18-58 2-7 5-14 7-21 1-2 2-6 3-9-1-5-5-9-8-12-14-11-38-13-55-13-27 0-57 2-84 8-6 1-33 8-35 15-12 30-21 64-27 96-3 13-8 27-13 39-8 18-16 37-25 55-22 45-46 90-71 134-29 53-59 105-91 156l-8 14-8-15c-10-20-20-40-29-61-7-16-14-35-17-53-2-17-5-34-7-51-3-27-2-52 1-79 2-17 6-33 11-49 5-20 11-39 18-58 2-7 5-14 7-21 1-2 2-6 3-9-1-5-5-9-9-12-13-11-38-13-54-13-28 0-57 2-84 8-7 1-33 8-36 15-4 12-7 27-10 39-5 20-10 39-17 58-4 11-8 22-13 32-8 20-17 40-25 59-24 54-47 107-71 161-35 77-69 155-104 232-17 37-34 73-53 109l-3 6c-5 10-11 21-16 31v1l-1 2c-5 8-9 15-14 22-4 6-10 14-18 14s-10-9-12-15c-1-8-2-15-2-23-1-24 2-50 6-74 8-38 17-75 26-113 11-46 23-91 36-137 4-16 8-31 12-47 2-5 3-10 4-15 1-2 1-4 2-6 0-3 0-6 1-8 0-4 0-8-2-11-4-14-17-22-30-26-13-5-29-8-42-1-4 1-7 4-10 6s-5 5-8 6c-1 1-2 3-2 4l-3 9-17-5 2-9c8-34 11-79 6-113-8-54-36-90-95-90-64 0-140 50-187 91-34 29-67 63-92 100l-1 2-2 1c-73 40-146 79-218 119l-105 57-6 4-5-5c-3-3-5-5-7-8-57-61-126-113-192-164-61-47-123-94-178-148-50-49-96-105-119-172-13-37-18-75-16-113 2-35 7-68 18-101 17-55 46-105 80-150 54-71 123-133 194-187 110-84 233-154 357-216 112-55 231-101 353-130 95-23 196-36 294-33 72 2 149 13 215 42 46 20 93 52 115 99 28 62 21 132 0 195-27 79-79 152-136 211-156 162-379 256-600 281-77 9-158 4-231-23-34-12-77-35-102-62-3-3-23-25-27-25-1 0-3 1-3 1h-1c-10 6 2 32 5 40 10 26 35 53 56 71 35 32 79 55 124 70 29 9 62 15 93 18 45 5 91 6 136 3 126-6 252-36 369-81 55-22 109-50 158-83 103-70 194-165 255-273 55-98 89-213 74-326-2-15-5-30-8-45-6-23-15-45-26-65-70-131-230-192-369-214-193-30-404 0-587 65-267 95-553 242-760 436-93 87-181 193-232 310-16 37-29 77-35 117-4 26-6 55-1 81 29 148 148 269 261 360 65 53 134 101 203 148 30 21 61 42 92 64 25 19 51 38 75 59l10 9-11 6c-8 4-16 8-23 13-145 72-402 223-471 374-33 74-46 160-17 238 10 26 25 52 44 72 13 14 31 28 50 34 205 57 419-45 535-218 54-80 82-177 87-273 3-70-6-158-39-221 0 0 0-1-1-1l-8-9 10-6c22-13 43-25 65-38 39-23 79-46 119-67l22-11-9 22c-25 69-36 141-41 213-3 39 0 80 8 118 12 60 40 145 85 188 21 20 45 23 72 23 18 0 34-4 48-13 37-22 62-72 80-109 4-7 7-14 11-22 17-35 34-72 49-108l21-51 3-8 16 5-1 8c-3 14-4 28-6 42-3 30-4 61-2 92 4 49 18 119 81 119 42 0 88-57 109-89l3-4zm-847-254c5-3 9-6 14-8l11-7 3 12c41 150 6 291-99 405-42 47-98 86-158 107-39 14-95 25-133 3-43-25-41-88-31-129 15-68 57-132 107-179 18-17 36-33 56-48 52-42 108-82 165-117 19-12 39-23 58-35h1c2-1 4-3 6-4zm612-63c-17 41-32 84-49 125-14 35-30 73-49 106-10 16-31 52-55 45-33-9-41-86-43-112-4-71 7-148 29-215 9-25 19-49 30-72 13-27 27-53 43-79 12-19 25-39 40-56 20-22 46-44 73-57 17-7 43-14 58 0 2 2 4 4 5 6 8 14 0 50-3 65-8 34-18 68-28 100-9 29-19 58-29 86-7 19-14 39-22 58zm520 255c19-20 38-41 56-62 15-15 29-31 42-48 19-23 37-46 55-70l17-22v35c0 83-67 144-131 185h-1c-11 6-30 15-42 8-2-1-3-3-4-5-4-8 3-16 8-21zm462-81c-12-9-10-25-8-37 3-11 6-22 10-32 6-16 13-32 20-48 21-47 61-93 99-127l11-10 4 14c6 18 11 38 10 57-1 94-53 153-138 184l-4 1-4-2z"/>
</svg>
